<svg width="1200" height="630" viewBox="0 0 1200 630" fill="none" xmlns="http://www.w3.org/2000/svg">
  <rect width="1200" height="630" rx="48" fill="#050510"/>
  <circle cx="240" cy="180" r="220" fill="url(#paint0_radial)" fill-opacity="0.8"/>
  <circle cx="960" cy="480" r="260" fill="url(#paint1_radial)" fill-opacity="0.7"/>
  <g filter="url(#filter0_d)">
    <path d="M252 216C252 159.88 284.012 124 336.124 124C388.236 124 420.25 159.88 420.25 216V414H362.628V222.448C362.628 200.784 351.092 187.892 336.124 187.892C321.156 187.892 309.62 200.784 309.62 222.448V414H252V216Z" fill="white"/>
    <path d="M450.41 414V126H507.32V414H450.41Z" fill="white"/>
    <path d="M539.207 126H687.931C742.671 126 780.971 160.316 780.971 212.272C780.971 250.204 759.307 281.628 725.699 294.52L786.791 414H720.671L665.443 301.116H596.117V414H539.207V126ZM681.335 246.996C700.139 246.996 712.275 231.42 712.275 212.272C712.275 193.124 700.139 179.788 681.335 179.788H596.117V246.996H681.335Z" fill="white"/>
  </g>
  <text x="120" y="480" fill="#C9C7FF" font-family="'Manrope', 'Helvetica Neue', sans-serif" font-size="42" font-weight="500">
    Experiential marketing studio turning product launches into unforgettable movements.
  </text>
  <text x="120" y="540" fill="white" font-family="'Manrope', 'Helvetica Neue', sans-serif" font-size="28" font-weight="700">
    hypeemup.com
  </text>
  <defs>
    <filter id="filter0_d" x="232" y="106" width="576" height="328" filterUnits="userSpaceOnUse" color-interpolation-filters="sRGB">
      <feFlood flood-opacity="0" result="BackgroundImageFix"/>
      <feColorMatrix in="SourceAlpha" type="matrix" values="0 0 0 0 0 0 0 0 0 0 0 0 0 0 0 0 0 0 127 0" result="hardAlpha"/>
      <feOffset dy="8"/>
      <feGaussianBlur stdDeviation="10"/>
      <feComposite in2="hardAlpha" operator="out"/>
      <feColorMatrix type="matrix" values="0 0 0 0 0.369 0 0 0 0 0.337 0 0 0 0 0.902 0 0 0 0.3 0"/>
      <feBlend mode="normal" in2="BackgroundImageFix" result="effect1_dropShadow"/>
      <feBlend mode="normal" in="SourceGraphic" in2="effect1_dropShadow" result="shape"/>
    </filter>
    <radialGradient id="paint0_radial" cx="0" cy="0" r="1" gradientUnits="userSpaceOnUse" gradientTransform="translate(240 180) rotate(90) scale(220)">
      <stop stop-color="#6C5CE7"/>
      <stop offset="1" stop-color="#6C5CE7" stop-opacity="0"/>
    </radialGradient>
    <radialGradient id="paint1_radial" cx="0" cy="0" r="1" gradientUnits="userSpaceOnUse" gradientTransform="translate(960 480) rotate(90) scale(260)">
      <stop stop-color="#FF6B6B"/>
      <stop offset="1" stop-color="#FF6B6B" stop-opacity="0"/>
    </radialGradient>
  </defs>
</svg>
